<svg width="1200" height="1200" viewBox="0 0 1200 1200" fill="none" xmlns="http://www.w3.org/2000/svg">
<path d="M600 949.95C580 949.95 561.2 942.15 547.05 928.05L11 392.05C3.9 384.95 0 375.55 0 365.5C0 355.5 3.9 346.05 11 339C18.1 331.9 27.5 328 37.5 328C47.5 328 56.95 331.9 64 339L600 874.95L1136 339C1143.1 331.9 1152.5 328 1162.5 328C1172.5 328 1181.95 331.9 1189 339C1196.1 346.1 1200 355.5 1200 365.5C1200 375.5 1196.1 384.95 1189 392L653 928C638.9 942.15 620.05 949.95 600 949.95Z" fill="#700"/>
</svg>