<svg width="24" height="24" viewBox="0 0 1200 1201" fill="none"
  xmlns="http://www.w3.org/2000/svg">
  <desc>Dekket i denne forsikringen</desc>
  <path
    d="M600 0C481.331 0 365.328 35.1894 266.658 101.118C167.989 167.047 91.0851 260.754 45.6726 370.39C0.259972 480.026 -11.622 600.666 11.5291 717.054C34.6802 833.443 91.8247 940.352 175.736 1024.26C259.648 1108.18 366.558 1165.32 482.946 1188.47C599.335 1211.62 719.975 1199.74 829.61 1154.33C939.246 1108.92 1032.95 1032.01 1098.88 933.342C1164.81 834.673 1200 718.669 1200 600C1199.82 440.927 1136.54 288.422 1024.06 175.941C911.578 63.4589 759.073 0.185261 600 0V0ZM946.35 410L604.1 874.45C600.06 879.811 594.992 884.313 589.192 887.695C583.392 891.076 576.977 893.268 570.321 894.143C563.665 895.018 556.902 894.558 550.425 892.791C543.949 891.024 537.889 887.984 532.6 883.85L288.2 688.45C283.072 684.346 278.803 679.272 275.635 673.519C272.468 667.765 270.465 661.443 269.741 654.915C268.278 641.732 272.112 628.507 280.4 618.15C288.688 607.793 300.751 601.153 313.935 599.69C327.119 598.228 340.344 602.062 350.7 610.35L554.5 773.4L865.85 350.85C869.599 345.225 874.448 340.419 880.106 336.722C885.765 333.024 892.114 330.512 898.77 329.338C905.426 328.163 912.252 328.351 918.834 329.889C925.415 331.426 931.617 334.283 937.064 338.285C942.511 342.287 947.09 347.352 950.524 353.174C953.958 358.996 956.176 365.453 957.044 372.157C957.912 378.86 957.412 385.669 955.574 392.174C953.736 398.678 950.598 404.742 946.35 410Z"
    fill="#700"></path>
</svg>